Simulation
nRows=28
nColumns=15
endheader
time  TH_x TH_y TH_z SC_y  SC_z  SC_x  AC_y  AC_z  AC_x  GH_y  GH_z  GH_yy  EL_x  PS_y
1.95  0.000000  0.000000  0.000000  -32.17573435028467  8.492914141911102  22.285275268429544  63.92248850097992  10.784068719774647  4.2068852682949975  49.50684812950888  55.65940026457078  -45.13156307156606  22.54195264936253  0.000000
1.989  0.000000  0.000000  0.000000  -31.7162033189083  8.060605710012647  22.313454449125544  63.355824138447616  10.070260743102528  2.867585263616628  49.40149078855303  54.70652638657856  -44.586327712195356  22.6357884179812  0.000000
2.028  0.000000  0.000000  0.000000  -31.303477904241003  7.609707365280263  22.276125900982027  62.99601050355683  9.376392983598079  1.679497426459493  49.32844570714142  53.627793352243415  -43.886227566748936  22.756694144440537  0.000000
2.067  0.000000  0.000000  0.000000  -30.895430594972225  7.135240073574793  22.174329639415745  62.77831601261621  8.681050913054623  0.6010412054931257  49.30863043173211  52.422069100851964  -43.03357391266301  22.903997790882887  0.000000
2.106  0.000000  0.000000  0.000000  -30.489844142784122  6.640963137327015  22.03416352489364  62.64280244101805  7.947091814753403  -0.4182042491971932  49.32167271609835  51.09755893259584  -42.02756238939289  23.0806289987097  0.000000
2.145  0.000000  0.000000  0.000000  -30.093936873295963  6.121489208303745  21.877600295026717  62.56234853518795  7.156569659904779  -1.40604582232967  49.328319794919615  49.668295418702144  -40.87422282374752  23.27069054026697  0.000000
2.184  0.000000  0.000000  0.000000  -29.71087949874649  5.5750436172011115  21.733296712943414  62.51678366500038  6.301475654165511  -2.3783349927340725  49.2827129773359  48.14479071044668  -39.583362288953815  23.44542725788564  0.000000
2.223  0.000000  0.000000  0.000000  -29.354175186360735  5.0051302984249375  21.632312148773256  62.493370144573284  5.369264280459793  -3.343180161726051  49.14417609959902  46.54070344621015  -38.16188336754428  23.591200530449104  0.000000
2.262  0.000000  0.000000  0.000000  -29.036789467531744  4.4181859183764  21.59635970564532  62.48462664868427  4.35401475411084  -4.303989800277143  48.88681552714602  44.871760606289534  -36.614695717725645  23.709452227152415  0.000000
2.301  0.000000  0.000000  0.000000  -28.76035329669217  3.8210972267298544  21.625937555845205  62.47788945541686  3.256464105013833  -5.255319446284434  48.49506472366811  43.15654058747261  -34.94220725115581  23.806681803891706  0.000000
2.34  0.000000  0.000000  0.000000  -28.523796741968756  3.2222426503802515  21.718465566833785  62.46063898543608  2.078272002252808  -6.196223850769718  47.961525682263165  41.41233026221154  -33.14482431335236  23.898180148582895  0.000000
2.379  0.000000  0.000000  0.000000  -28.328172267974637  2.6326939304322448  21.858939797956335  62.41377237354639  0.8298932987066738  -7.1180881617712926  47.28349630071783  39.65381429738787  -31.216149501668006  24.003972178880893  0.000000
2.418  0.000000  0.000000  0.000000  -28.171566655516028  2.062576651757713  22.02690651098071  62.32239163028524  -0.46603972140732897  -8.015354994126866  46.45828505881027  37.89338870991544  -29.152625749089484  24.142625743746073  0.000000
2.457  0.000000  0.000000  0.000000  -28.048269490625394  1.5185029383181132  22.18640694300702  62.166086390870554  -1.7715889392282342  -8.879012514916235  45.481997830747694  36.14232547456842  -26.94968881635348  24.332876870541742  0.000000
2.496  0.000000  0.000000  0.000000  -27.957424298972  1.0111047078200508  22.30114532987652  61.93010732562236  -3.046502877455239  -9.702028440185375  44.35229169739246  34.411015468471504  -24.606906976652652  24.58962802301697  0.000000
2.535  0.000000  0.000000  0.000000  -27.896359403089207  0.550133095355813  22.326688282602777  61.59915181261009  -4.239466432281595  -10.472238150644673  43.07171083659473  32.70339647337279  -22.128709129909588  24.920581118642513  0.000000
2.574  0.000000  0.000000  0.000000  -27.861128520634303  0.14527881018900285  22.22774247895305  61.16961229283972  -5.3063276802276444  -11.178478350805378  41.6531915647879  31.019011396635904  -19.534024284505737  25.315848537600225  0.000000
2.613  0.000000  0.000000  0.000000  -27.84230773177194  -0.19777214046101188  21.984456350896167  60.642693799687706  -6.214431111072683  -11.81259862726002  40.1198107707926  29.349652992184353  -16.85086544036144  25.752273626457537  0.000000
2.652  0.000000  0.000000  0.000000  -27.83250099707371  -0.48006712047988426  21.607719596169616  60.02810739093489  -6.955847860975848  -12.37937108648314  38.49742783506326  27.681675590779676  -14.112086741590254  26.19808911206963  0.000000
2.691  0.000000  0.000000  0.000000  -27.833278714707966  -0.6998416434390945  21.123257396355104  59.341002151616074  -7.5364053059031475  -12.886059382090084  36.813389857427964  25.99662983106729  -11.35220860154102  26.623062472349968  0.000000
2.73  0.000000  0.000000  0.000000  -27.848387735184218  -0.8607943926258416  20.56091258399125  58.604606845391864  -7.962462741321784  -13.341738392638957  35.09357190016471  24.273873497224496  -8.60472113993168  26.994756902282376  0.000000
2.769  0.000000  0.000000  0.000000  -27.87734970673397  -0.9703615843441995  19.950960763848048  57.83960890071887  -8.242136058880211  -13.755024708540958  33.36471222194051  22.495409096353324  -5.900566514959372  27.28315976558855  0.000000
2.808  0.000000  0.000000  0.000000  -27.919935216937834  -1.0343219090152802  19.323274235336562  57.06903458987658  -8.392196363800123  -14.132717662118834  31.646961132519607  20.653854036684177  -3.26412357429275  27.468490965523394  0.000000
2.847  0.000000  0.000000  0.000000  -27.976467500118986  -1.059955593052653  18.70347847687827  56.309097468760186  -8.431943765523577  -14.480534373691864  29.946562323769776  18.752503824889363  -0.7054763489741296  27.546970648518005  0.000000
2.886  0.000000  0.000000  0.000000  -28.04786116342092  -1.0544715316046016  18.108890508367185  55.57499415992717  -8.38426460534917  -14.803568935688212  28.252204483266837  16.810438393106207  1.7759317738918716  27.52767703280347  0.000000
2.925  0.000000  0.000000  0.000000  -28.13430915738777  -1.0255031640442822  17.55149928584939  54.877318588726766  -8.266380768646906  -15.104384237328803  26.547594283318727  14.852084679986314  4.187739433724881  27.427269954882572  0.000000
2.964  0.000000  0.000000  0.000000  -28.23329064607689  -0.9802150830040657  17.04055202546133  54.227453742083604  -8.094863113665083  -15.383441671676877  24.81428131694825  12.90683245437141  6.538287661645  27.26570704589236  0.000000
3.003  0.000000  0.000000  0.000000  -28.3425127140489  -0.9250976124836463  16.582881848205204  53.637066917311415  -7.883776893666616  -15.637903140065879  23.035309995963402  11.00398748604403  8.835432560965614  27.06316731321612  0.000000
